<svg xmlns="http://www.w3.org/2000/svg" viewBox="0 0 1200 675" role="img" aria-label="Inventory dashboard preview">
  <rect width="1200" height="675" fill="#0a0a0a"/>
  <rect x="70" y="60" width="1060" height="555" rx="28" fill="#141414" stroke="#27272a"/>
  <rect x="110" y="100" width="210" height="475" rx="20" fill="#0f0f0f" stroke="#27272a"/>
  <rect x="360" y="100" width="205" height="120" rx="20" fill="#181818" stroke="#52525b"/>
  <rect x="595" y="100" width="205" height="120" rx="20" fill="#181818" stroke="#27272a"/>
  <rect x="830" y="100" width="250" height="120" rx="20" fill="#181818" stroke="#27272a"/>
  <rect x="360" y="255" width="720" height="320" rx="20" fill="#111111" stroke="#27272a"/>
  <path d="M395 325H1045M395 391H1045M395 457H1045M395 523H1045" stroke="#27272a" stroke-width="3"/>
  <path d="M435 540 520 470 600 492 690 372 780 410 875 304 1010 354" fill="none" stroke="#f5f5f5" stroke-width="8" stroke-linecap="round" stroke-linejoin="round"/>
  <text x="138" y="148" fill="#f5f5f5" font-family="Inter, Arial" font-size="24" font-weight="800">Inventory</text>
  <text x="392" y="171" fill="#f5f5f5" font-family="Space Grotesk, Arial" font-size="42" font-weight="800">Dashboard</text>
</svg>
