<svg xmlns="http://www.w3.org/2000/svg" viewBox="0 0 1200 675" role="img" aria-label="Portfolio website preview">
  <defs>
    <linearGradient id="panel" x1="0" x2="1">
      <stop offset="0" stop-color="#181818"/>
      <stop offset="1" stop-color="#0f0f0f"/>
    </linearGradient>
    <pattern id="grid" width="38" height="38" patternUnits="userSpaceOnUse">
      <path d="M38 0H0V38" fill="none" stroke="#ffffff" stroke-opacity=".06"/>
    </pattern>
  </defs>
  <rect width="1200" height="675" fill="#0a0a0a"/>
  <rect width="1200" height="675" fill="url(#grid)"/>
  <rect x="80" y="70" width="1040" height="535" rx="34" fill="url(#panel)" stroke="#27272a"/>
  <rect x="126" y="112" width="948" height="58" rx="29" fill="#111111" stroke="#52525b"/>
  <text x="164" y="149" fill="#f5f5f5" font-family="JetBrains Mono, monospace" font-size="20" font-weight="800">sakti.dev</text>
  <rect x="148" y="238" width="484" height="42" rx="12" fill="#f5f5f5"/>
  <rect x="148" y="302" width="358" height="24" rx="12" fill="#a1a1aa"/>
  <rect x="148" y="358" width="170" height="52" rx="26" fill="#f5f5f5"/>
  <rect x="334" y="358" width="150" height="52" rx="26" fill="#232323" stroke="#52525b"/>
  <circle cx="866" cy="336" r="150" fill="#181818" stroke="#52525b"/>
  <circle cx="866" cy="302" r="52" fill="#d4d4d8"/>
  <path d="M764 451c12-76 52-125 102-125s90 49 102 125" fill="#a1a1aa"/>
  <text x="148" y="508" fill="#71717a" font-family="Inter, Arial" font-size="22">Projects / Tech Stack / Skills</text>
</svg>
